<svg xmlns="http://www.w3.org/2000/svg">

    <!-- Иконка Вконтакте -->
    <symbol viewBox="0 0 48 48" id="icon-vkontakte" >
      <path d="M0 0h48v48H0z" />
      <g clip-path="url(#a)">
        <path fill-rule="evenodd" clip-rule="evenodd"
          d="M35.45 17.95c.17-.55 0-.95-.8-.95h-2.62c-.67 0-.98.35-1.14.73 0 0-1.34 3.2-3.23 5.27-.61.6-.89.8-1.22.8-.17 0-.42-.2-.42-.74v-5.11c0-.66-.18-.95-.74-.95h-4.13c-.42 0-.67.3-.67.6 0 .61.95.76 1.05 2.5v3.8c0 .84-.16.99-.5.99-.88 0-3.05-3.21-4.33-6.89-.25-.71-.5-1-1.17-1H12.9c-.75 0-.9.35-.9.73 0 .68.89 4.07 4.14 8.55 2.18 3.06 5.23 4.72 8.01 4.72 1.67 0 1.88-.37 1.88-1v-2.32c0-.73.16-.88.68-.88.4 0 1.06.2 2.62 1.67C31.11 30.22 31.4 31 32.41 31h2.62c.75 0 1.13-.37.91-1.1-.24-.72-1.09-1.77-2.21-3.02-.62-.7-1.53-1.47-1.81-1.86-.4-.49-.28-.7 0-1.14 0 0 3.2-4.43 3.53-5.93Z"
          fill="#fff" />
      </g>
      <defs>
        <clipPath id="a">
          <path fill="#fff" transform="translate(12 12)" d="M0 0h24v24H0z" />
        </clipPath>
      </defs>>
    </symbol>

    <!-- Иконка Телеграма -->
    <symbol viewBox="0 0 48 48" id="icon-telegram">
      <rect width="48" height="48"/>
    <path
      d="M34.4393 16.6223L31.2705 31.566C31.0313 32.6205 30.408 32.883 29.5223 32.3865L24.6938 28.8285L22.3643 31.0695C22.1063 31.3275 21.891 31.5428 21.3938 31.5428L21.741 26.6258L30.6893 18.54C31.0785 18.1935 30.6045 18.0008 30.0848 18.348L19.0223 25.314L14.2598 23.823C13.224 23.4998 13.2053 22.7873 14.4758 22.29L33.1035 15.1133C33.966 14.79 34.7205 15.3053 34.4393 16.623V16.6223Z"
      fill="white" />
    </symbol>

    <!-- Иконка Ютюба -->
    <symbol viewBox="0 0 48 48" id="icon-youtube">
      <rect width="48" height="48"/>
      <path d="M31.1813 17H16.8133C15.3062 17 14 18.3 14 19.8V28.1C14 29.7 15.3062 31 16.8133 31H31.1813C32.7889 31 33.9946 29.7 33.9946 28.2V19.8C34.095 18.3 32.7889 17 31.1813 17ZM21.0333 27.4V20.6L27.8656 24L21.0333 27.4Z"
        fill="white"/>>
    </symbol>

    <!-- Иконка htmlacademy -->
    <symbol viewBox="0 0 27 35" id="icon-htmlacademy">
      <rect width="48" height="48" fill="none"/>
      <path d="M13.6 0H13.5L0 1.4V26.1L13.5 34.1L26.9 26.1V1.4L13.6 0ZM25 12.1L13.5 5.3V5.2H13.4L13.3 5.1V5.2L1.9 12.1V3.1L13.4 1.9L25 3.1V12.1ZM13.4 6.8L24.9 13.5L20.4 16.1L13.3 11.9V13.3L19.2 16.8L18.3 17.3L13.3 14.3V15.7L17.1 18L16.3 18.5L13.3 16.7V18.1L15.2 19.2L13.4 20.3L2 13.6L13.4 6.8ZM1.9 15.1L13.3 21.9V22.9L5.4 18.2V19.6L13.4 24.4V25.5L5.4 20.8V22.2L13.4 27L21.5 22.1V16.9L24.9 14.9V24.9L13.4 31.8L1.9 25V15.1Z"/>
    </symbol>

    <!-- Лайк -->
    <symbol viewBox="0 0 23 21" id="icon-like">
      <path d="M12.9636 3.78L12.3364 6.825L11.7091 9.45H14.3227H20.8045V11.55C20.8045 11.55 20.8045 11.55 20.8045 11.655L17.7727 18.9H8.36364V8.4L12.9636 3.78ZM2.09091 10.5V18.9V10.5ZM13.8 0L6.9 6.93C6.48182 7.245 6.27273 7.77 6.27273 8.4V18.9C6.27273 20.055 7.21364 21 8.36364 21H17.7727C18.6091 21 19.3409 20.475 19.6545 19.74L22.7909 12.285C22.8955 12.075 22.8955 11.76 22.8955 11.55V9.45H23C23 8.295 22.0591 7.35 20.9091 7.35H14.3227L15.3682 2.52V2.205C15.3682 1.785 15.1591 1.365 14.95 1.05L13.8 0ZM4.18182 8.4H0V21H4.18182V8.4Z"/>
    </symbol>
</svg>
