<svg xmlns="http://www.w3.org/2000/svg" xmlns:xlink="http://www.w3.org/1999/xlink"><defs><clipPath id="a"><path fill="#fff" transform="translate(12 12)" d="M0 0h24v24H0z"/></clipPath></defs><symbol id="icon-burger" viewBox="0 0 80 80"><path fill-rule="evenodd" clip-rule="evenodd" d="M72.531 36.375v-.001c.024-.828.055-1.945-.017-2.233C71.816 18.518 57.454 6 39.801 6 22.146 6 7.684 18.518 6.986 34.14v3.005h65.527c0-.168.008-.447.017-.77Zm-32.73-27.37c15.957 0 29.123 11.216 29.721 25.136H9.98c.698-13.92 13.864-25.137 29.822-25.137ZM23.244 48.861l-5.386-4.006-5.485 4.006-6.383-4.707 1.795-2.403 4.588 3.305 5.485-4.006 5.386 4.006 5.486-4.006 5.485 4.006 5.486-4.006 5.386 4.006 5.485-4.006 5.486 4.006 5.485-4.006 5.486 4.006 4.588-3.305 1.695 2.403-6.283 4.707-5.486-4.006-5.485 4.006-5.486-4.006-5.485 4.006-5.386-4.006-5.486 4.006-5.485-4.006-5.486 4.006ZM6.29 52.067H73.71c2.394 0 4.289 2.003 4.289 4.206v3.505c0 2.403-1.995 4.306-4.289 4.306h-.997v1.001c0 5.408-4.388 9.915-9.874 9.915H17.16c-5.386 0-9.874-4.406-9.874-9.915v-1H6.29C3.895 64.084 2 62.18 2 59.877v-3.505c0-2.303 1.895-4.306 4.289-4.306Zm56.65 19.929c3.79 0 6.883-3.105 6.883-6.91v-1.002H10.178v1.001c0 3.806 3.092 6.91 6.882 6.91h45.88ZM73.712 61.08c.698 0 1.297-.601 1.297-1.302h.1v-3.405c0-.701-.599-1.302-1.297-1.302H6.289c-.698 0-1.297.6-1.297 1.202v3.505c0 .7.599 1.302 1.297 1.302H73.71ZM41.895 21.623a1.999 1.999 0 0 1-1.995 2.003 1.999 1.999 0 0 1-1.994-2.003c0-1.106.893-2.003 1.994-2.003 1.102 0 1.995.897 1.995 2.003Zm-9.974-3.005a1.999 1.999 0 0 0 1.995-2.002 1.999 1.999 0 0 0-1.995-2.003 1.999 1.999 0 0 0-1.994 2.003c0 1.106.893 2.002 1.994 2.002Zm17.953-2.002a1.999 1.999 0 0 1-1.995 2.002 1.999 1.999 0 0 1-1.994-2.002c0-1.107.893-2.003 1.994-2.003 1.102 0 1.995.896 1.995 2.003Z" fill="#81B3D2"/></symbol><symbol id="icon-check" viewBox="0 0 32 32"><path d="m28.77 6.552-1.237-1.289c-.337-.35-1.011-.35-1.349 0L12.808 19.2l-6.97-7.26c-.337-.352-1.011-.352-1.349 0l-1.236 1.287c-.337.352-.337 1.054 0 1.406l8.768 9.134c.225.234.45.234.674.234.225 0 .45-.117.675-.234l15.175-15.81c.562-.35.562-.936.225-1.404Z" fill="#81B3D2"/></symbol><symbol id="icon-gift" viewBox="0 0 80 80"><path d="M69.2 25.117H44.8C58.4 18.319 59.5 14.02 59 11.62c-1.1-3.899-5.6-6.898-9.8-5.298-5.5 2.099-7 10.296-8.5 16.194-1.9-5.998-3.7-13.595-8-17.494-1.2-1.1-3-2.2-5.7-2-4 .4-9.7 5.299-7.3 10.797 2.2 5.299 9.5 8.697 14.4 11.397H11.8c-1.6 0-2.8 1.3-2.8 2.799v11.196c0 1.6 1.3 2.8 2.8 2.8h.3V78h57V42.011h.1c1.6 0 2.8-1.3 2.8-2.799V28.016c0-1.6-1.3-2.9-2.8-2.9ZM50.8 8.822c2.1-.3 4.9 1.3 5.2 3.199.4 2.699-3.3 5.198-5 6.298-2.5 1.7-4.9 2.599-7.2 3.999.8-3.7 2.5-12.896 7-13.496Zm-22.6 9.797c-2.2-1.5-6.4-4.399-6.3-7.698.1-3.599 5.7-6.498 8.7-3.799 3.8 3.3 5.6 10.997 7 16.395-3.2-1.6-6.2-2.799-9.4-4.898ZM34.1 75H15V42.01h19.1v32.99Zm0-35.989H12V28.116h22.1v10.896Zm10 35.989H37V28.116h7.1V75Zm22 0h-19V42.01h19.1v32.99h-.1ZM69 39.012H47.1V28.116H69v10.896Z" fill="#81B3D2"/></symbol><symbol id="icon-house" viewBox="0 0 80 80"><path fill-rule="evenodd" clip-rule="evenodd" d="M75.892 43.182 78 41.094l-9.94-9.845V4.398H54.205v13.127L40.45 4 3 41.193l2.108 2.089 7.832-7.757v37.591H9.024V76h64.157v-2.884h-5.12v-37.69l7.83 7.756Zm-18.775-35.8h7.931v20.983l-7.931-7.857V7.381Zm7.931 65.635H15.952V32.54L40.45 8.177 65.048 32.54v40.476ZM33.121 68.54h16.064V44.773H33.12v23.768Zm13.052-2.884h-10.14v-18h10.14v18ZM40.85 39.304c-4.216 0-7.73-3.48-7.73-7.757 0-4.276 3.413-7.657 7.73-7.657 4.318 0 7.832 3.38 7.832 7.657 0 4.276-3.514 7.757-7.831 7.757Zm5.02-7.757c0-2.785-2.309-4.972-5.02-4.972-2.71 0-5.02 2.287-5.02 4.972 0 2.784 2.31 4.972 5.02 4.972 2.812 0 5.02-2.287 5.02-4.972Zm-22.79 13.226h-3.013v3.879h3.012v-3.879Zm3.011 0h3.012v3.879h-3.012v-3.879ZM23.08 50.74h-3.012v3.879h3.012V50.74Zm3.012 0h3.012v3.879h-3.012V50.74Zm29.117-5.967h-3.012v3.879h3.012v-3.879Zm3.012 0h3.012v3.879H58.22v-3.879Zm-3.012 5.967h-3.012v3.879h3.012V50.74Zm3.012 0h3.012v3.879H58.22V50.74Z" fill="#81B3D2"/></symbol><symbol id="icon-htmlacademy" viewBox="0 0 28 33"><path d="M14.15.25h-.1L.5 1.59V25.22l13.55 7.654 13.45-7.654V1.589L14.15.25Zm11.443 11.577L14.05 5.32v-.096h-.1l-.1-.096v.096L2.406 11.827V3.216L13.95 2.068l11.643 1.148v8.61ZM13.95 6.756l11.543 6.41-4.517 2.488-7.127-4.019v1.34l5.922 3.348-.903.479-5.019-2.87v1.339l3.815 2.2-.803.479-3.012-1.722v1.34l1.908 1.051-1.807 1.053-11.443-6.41L13.95 6.756Zm-11.543 7.94 11.442 6.507v.957L5.92 17.663v1.34l8.03 4.592v1.052L5.92 20.15v1.34l8.03 4.592 8.13-4.688V16.42l3.413-1.914v9.568L13.95 30.674 2.407 24.17v-9.472Z"/></symbol><symbol id="icon-like" viewBox="0 0 23 21"><path d="m12.964 3.78-.628 3.045-.627 2.625h9.096v2.205L17.773 18.9h-9.41V8.4l4.6-4.62ZM2.09 10.5v8.4-8.4ZM13.8 0 6.9 6.93c-.418.315-.627.84-.627 1.47v10.5c0 1.155.94 2.1 2.09 2.1h9.41c.836 0 1.568-.525 1.881-1.26l3.137-7.455c.104-.21.104-.525.104-.735v-2.1H23c0-1.155-.94-2.1-2.09-2.1h-6.587l1.045-4.83v-.315c0-.42-.209-.84-.418-1.155L13.8 0ZM4.182 8.4H0V21h4.182V8.4Z"/></symbol><symbol id="icon-nav-burger" viewBox="0 0 32 32"><path d="M28 6H4v4h24V6ZM28 14H4v4h24v-4ZM28 22H4v4h24v-4Z" fill="#81B3D2"/></symbol><symbol id="icon-nav-cross" viewBox="0 0 32 32"><path d="M29 6.153 25.72 3 16 12.347 6.28 3 3 6.153l9.72 9.347L3 24.847 6.28 28 16 18.653 25.72 28 29 24.847 19.28 15.5 29 6.153Z" fill="#81B3D2"/></symbol><symbol id="icon-telegram" viewBox="0 0 48 48"><path d="M0 0h48v48H0z"/><path d="m34.44 16.622-3.17 14.944c-.239 1.055-.862 1.317-1.748.82l-4.828-3.558-2.33 2.242c-.258.258-.473.473-.97.473l.347-4.917 8.948-8.086c.39-.346-.084-.54-.604-.192l-11.063 6.966-4.762-1.491c-1.036-.323-1.055-1.036.216-1.533l18.627-7.177c.863-.323 1.617.192 1.336 1.51Z" fill="#fff"/></symbol><symbol id="icon-vkontakte" viewBox="0 0 48 48"><path d="M0 0h48v48H0z"/><g clip-path="url(#a)"><path fill-rule="evenodd" clip-rule="evenodd" d="M35.45 17.948c.166-.546 0-.948-.795-.948H32.03c-.668 0-.976.347-1.143.73 0 0-1.335 3.196-3.226 5.272-.612.602-.89.793-1.224.793-.167 0-.418-.191-.418-.738v-5.109c0-.656-.184-.948-.74-.948h-4.128c-.417 0-.668.304-.668.593 0 .621.946.765 1.043 2.513v3.798c0 .833-.153.984-.487.984-.89 0-3.055-3.211-4.34-6.885-.249-.715-.501-1.003-1.172-1.003H12.9c-.75 0-.9.347-.9.73 0 .682.89 4.07 4.145 8.551C18.315 29.341 21.37 31 24.153 31c1.669 0 1.875-.368 1.875-1.003v-2.313c0-.737.158-.884.687-.884.39 0 1.057.192 2.615 1.667C31.11 30.216 31.403 31 32.405 31h2.625c.75 0 1.126-.368.91-1.096-.238-.724-1.088-1.775-2.215-3.022-.612-.71-1.53-1.475-1.809-1.858-.389-.491-.278-.71 0-1.147 0 0 3.2-4.426 3.533-5.929h.001Z" fill="#fff"/></g></symbol><symbol id="icon-youtube" viewBox="0 0 48 48"><path d="M0 0h48v48H0z"/><path d="M31.181 17H16.813C15.306 17 14 18.3 14 19.8v8.3c0 1.6 1.306 2.9 2.813 2.9h14.368c1.608 0 2.814-1.3 2.814-2.8v-8.4c.1-1.5-1.206-2.8-2.814-2.8ZM21.033 27.4v-6.8l6.833 3.4-6.833 3.4Z" fill="#fff"/></symbol></svg>